<svg id="Mara_Logo" data-name="Mara Logo" xmlns="http://www.w3.org/2000/svg" width="150" height="46.059" viewBox="0 0 150 46.059">
  <g id="Group_3306" data-name="Group 3306">
    <path id="Path_22277" data-name="Path 22277" d="M-660.969,731.6a19.912,19.912,0,0,1,19.889,19.889,19.912,19.912,0,0,1-19.889,19.889,19.912,19.912,0,0,1-19.889-19.889A19.911,19.911,0,0,1-660.969,731.6m0-3.141A23.03,23.03,0,0,0-684,751.485a23.03,23.03,0,0,0,23.03,23.03,23.03,23.03,0,0,0,23.03-23.03,23.029,23.029,0,0,0-23.03-23.03Z" transform="translate(683.999 -728.455)" fill="#ff7500"/>
    <g id="Group_3305" data-name="Group 3305" transform="translate(7.362 6.804)">
      <path id="Path_22278" data-name="Path 22278" d="M-655.627,745.815h5.884a1.57,1.57,0,0,0,1.57-1.57,1.57,1.57,0,0,0-1.57-1.57h-5.884a1.57,1.57,0,0,0-1.57,1.57A1.57,1.57,0,0,0-655.627,745.815Z" transform="translate(662.66 -742.674)" fill="#ff7500"/>
      <path id="Path_22279" data-name="Path 22279" d="M-664.259,754.565h20.2a1.57,1.57,0,0,0,1.57-1.57,1.57,1.57,0,0,0-1.57-1.57h-20.2a1.57,1.57,0,0,0-1.57,1.57A1.57,1.57,0,0,0-664.259,754.565Z" transform="translate(667.162 -747.237)" fill="#ff7500"/>
      <path id="Path_22280" data-name="Path 22280" d="M-642.242,761.745a1.57,1.57,0,0,0-1.57-1.57h-23.232a1.57,1.57,0,0,0-1.57,1.57,1.57,1.57,0,0,0,1.57,1.571h23.232A1.57,1.57,0,0,0-642.242,761.745Z" transform="translate(668.614 -751.8)" fill="#ff7500"/>
      <path id="Path_22281" data-name="Path 22281" d="M-635.118,770.5a1.57,1.57,0,0,0-1.57-1.57h-25.6a1.57,1.57,0,0,0-1.57,1.57,1.57,1.57,0,0,0,1.57,1.57h25.6A1.57,1.57,0,0,0-635.118,770.5Z" transform="translate(666.136 -756.363)" fill="#ff7500"/>
      <path id="Path_22282" data-name="Path 22282" d="M-630.768,780.816a1.57,1.57,0,0,0,1.57-1.57,1.57,1.57,0,0,0-1.57-1.57h-10.783a1.57,1.57,0,0,0-1.57,1.57,1.57,1.57,0,0,0,1.57,1.57Z" transform="translate(655.32 -760.927)" fill="#ff7500"/>
      <path id="Path_22283" data-name="Path 22283" d="M-606.285,786.426h-.454a1.57,1.57,0,0,0-1.57,1.57,1.57,1.57,0,0,0,1.57,1.57h.454a1.57,1.57,0,0,0,1.57-1.57A1.57,1.57,0,0,0-606.285,786.426Z" transform="translate(637.166 -765.49)" fill="#ff7500"/>
      <path id="Path_22284" data-name="Path 22284" d="M-610.727,795.176h-.955a1.57,1.57,0,0,0-1.57,1.57,1.57,1.57,0,0,0,1.57,1.57h.955a1.57,1.57,0,0,0,1.57-1.57A1.57,1.57,0,0,0-610.727,795.176Z" transform="translate(639.744 -770.053)" fill="#ff7500"/>
      <path id="Path_22285" data-name="Path 22285" d="M-629.267,786.426H-639.9a1.57,1.57,0,0,0-1.57,1.57,1.57,1.57,0,0,0,1.57,1.57h10.638A1.571,1.571,0,0,0-627.7,788,1.57,1.57,0,0,0-629.267,786.426Z" transform="translate(654.461 -765.49)" fill="#ff7500"/>
      <path id="Path_22286" data-name="Path 22286" d="M-631.336,795.176h-7.074a1.57,1.57,0,0,0-1.57,1.57,1.57,1.57,0,0,0,1.57,1.57h7.074a1.57,1.57,0,0,0,1.57-1.57A1.57,1.57,0,0,0-631.336,795.176Z" transform="translate(653.682 -770.053)" fill="#ff7500"/>
      <path id="Path_22287" data-name="Path 22287" d="M-632.114,803.927h-3.226a1.57,1.57,0,0,0-1.57,1.57,1.57,1.57,0,0,0,1.57,1.57h3.226a1.571,1.571,0,0,0,1.571-1.57A1.57,1.57,0,0,0-632.114,803.927Z" transform="translate(652.081 -774.616)" fill="#ff7500"/>
    </g>
  </g>
  <g id="Group_3307" data-name="Group 3307" transform="translate(53.736 11.515)">
    <path id="Path_22288" data-name="Path 22288" d="M-488.479,752.518a11.515,11.515,0,0,0-11.515,11.515,11.515,11.515,0,0,0,11.515,11.515,11.159,11.159,0,0,0,7.369-2.92v.847a2.073,2.073,0,0,0,2.073,2.072,2.072,2.072,0,0,0,2.072-2.072v-9.442A11.515,11.515,0,0,0-488.479,752.518Zm0,18.885a7.37,7.37,0,0,1-7.37-7.37,7.369,7.369,0,0,1,7.37-7.37,7.369,7.369,0,0,1,7.369,7.37A7.37,7.37,0,0,1-488.479,771.4Z" transform="translate(534.308 -752.518)" fill="#fff"/>
    <path id="Path_22289" data-name="Path 22289" d="M-407.144,752.518a11.515,11.515,0,0,0-11.515,11.515,11.514,11.514,0,0,0,11.515,11.515,11.16,11.16,0,0,0,7.37-2.92v.847a2.072,2.072,0,0,0,2.072,2.072,2.073,2.073,0,0,0,2.073-2.072v-9.442A11.515,11.515,0,0,0-407.144,752.518Zm0,18.885a7.37,7.37,0,0,1-7.37-7.37,7.37,7.37,0,0,1,7.37-7.37,7.369,7.369,0,0,1,7.37,7.37A7.37,7.37,0,0,1-407.144,771.4Z" transform="translate(491.893 -752.518)" fill="#fff"/>
    <path id="Path_22290" data-name="Path 22290" d="M-541.3,761.154a8.637,8.637,0,0,0-8.636-8.636,8.617,8.617,0,0,0-6.563,3.024,8.617,8.617,0,0,0-6.563-3.024,8.636,8.636,0,0,0-8.636,8.636v12.321a2.072,2.072,0,0,0,2.073,2.072,2.073,2.073,0,0,0,2.073-2.072V761.154h0a4.491,4.491,0,0,1,4.491-4.491,4.491,4.491,0,0,1,4.49,4.491h0v12.321a2.073,2.073,0,0,0,2.073,2.072,2.072,2.072,0,0,0,2.073-2.072V761.154a4.491,4.491,0,0,1,4.491-4.491,4.491,4.491,0,0,1,4.491,4.491v12.321a2.072,2.072,0,0,0,2.073,2.072,2.073,2.073,0,0,0,2.073-2.072V761.154Z" transform="translate(571.703 -752.518)" fill="#fff"/>
    <path id="Path_22291" data-name="Path 22291" d="M-433.606,752.518a8.637,8.637,0,0,0-8.636,8.636v12.321a2.073,2.073,0,0,0,2.073,2.072,2.072,2.072,0,0,0,2.072-2.072V761.154h0a4.491,4.491,0,0,1,4.491-4.491,2.072,2.072,0,0,0,2.072-2.073A2.073,2.073,0,0,0-433.606,752.518Z" transform="translate(504.192 -752.518)" fill="#fff"/>
  </g>
</svg>
