<?xml version="1.0" encoding="UTF-8" standalone="no"?>
<!-- Created with Inkscape (http://www.inkscape.org/) -->

<svg
   version="1.1"
   id="svg2"
   xml:space="preserve"
   width="615.46667"
   height="188.93333"
   viewBox="0 0 615.46667 188.93333"
   sodipodi:docname="mara_horizontal_orange+black (1).ai"
   xmlns:inkscape="http://www.inkscape.org/namespaces/inkscape"
   xmlns:sodipodi="http://sodipodi.sourceforge.net/DTD/sodipodi-0.dtd"
   xmlns="http://www.w3.org/2000/svg"
   xmlns:svg="http://www.w3.org/2000/svg"><defs
     id="defs6"><clipPath
       clipPathUnits="userSpaceOnUse"
       id="clipPath16"><path
         d="M 0,141.7 H 461.6 V 0 H 0 Z"
         id="path14" /></clipPath></defs><sodipodi:namedview
     id="namedview4"
     pagecolor="#ffffff"
     bordercolor="#666666"
     borderopacity="1.0"
     inkscape:pageshadow="2"
     inkscape:pageopacity="0.0"
     inkscape:pagecheckerboard="0" /><g
     id="g8"
     inkscape:groupmode="layer"
     inkscape:label="mara_horizontal_orange+black (1)"
     transform="matrix(1.3333333,0,0,-1.3333333,0,188.93333)"><g
       id="g10"><g
         id="g12"
         clip-path="url(#clipPath16)"><g
           id="g18"
           transform="translate(70.9,141.7)"><path
             d="m 0,0 c -39.2,0 -70.9,-31.7 -70.9,-70.9 0,-39.2 31.7,-70.9 70.9,-70.9 39.2,0 70.9,31.7 70.9,70.9 C 70.8,-31.7 39.1,0 0,0 m 0,-9.7 c 33.8,0 61.2,-27.4 61.2,-61.2 0,-33.8 -27.4,-61.2 -61.2,-61.2 -33.8,0 -61.2,27.4 -61.2,61.2 0,33.8 27.4,61.2 61.2,61.2"
             style="fill:#ff7500;fill-opacity:1;fill-rule:nonzero;stroke:none"
             id="path20" /></g><g
           id="g22"
           transform="translate(44.3,111.1)"><path
             d="m 0,0 h 18.1 c 2.7,0 4.8,2.2 4.8,4.8 0,2.6 -2.2,4.8 -4.8,4.8 H 0 C -2.7,9.6 -4.8,7.4 -4.8,4.8 -4.8,2.2 -2.7,0 0,0"
             style="fill:#ff7500;fill-opacity:1;fill-rule:nonzero;stroke:none"
             id="path24" /></g><g
           id="g26"
           transform="translate(31.6,98.2)"><path
             d="m 0,0 h 62.2 c 2.7,0.1 4.7,2.4 4.6,5.1 -0.1,2.5 -2.1,4.5 -4.6,4.6 H 0 C -2.7,9.8 -4.9,7.8 -5.1,5.1 -5.3,2.4 -3.2,0.2 -0.5,0 Z"
             style="fill:#ff7500;fill-opacity:1;fill-rule:nonzero;stroke:none"
             id="path28" /></g><g
           id="g30"
           transform="translate(103.8,90.2)"><path
             d="m 0,0 c 0,2.7 -2.1,4.8 -4.8,4.8 h -71.5 c -2.7,0 -4.8,-2.2 -4.8,-4.8 0,-2.7 2.2,-4.8 4.8,-4.8 H -4.8 C -2.1,-4.9 0,-2.7 0,0"
             style="fill:#ff7500;fill-opacity:1;fill-rule:nonzero;stroke:none"
             id="path32" /></g><g
           id="g34"
           transform="translate(118.1,77.3)"><path
             d="m 0,0 c 0,2.7 -2.2,4.8 -4.8,4.8 h -78.8 c -2.7,-0.1 -4.7,-2.4 -4.6,-5.1 0.1,-2.5 2.1,-4.5 4.6,-4.6 H -4.8 C -2.2,-4.9 0,-2.7 0,0"
             style="fill:#ff7500;fill-opacity:1;fill-rule:nonzero;stroke:none"
             id="path36" /></g><g
           id="g38"
           transform="translate(98.2,59.6)"><path
             d="M 0,0 C 2.7,0 4.8,2.2 4.8,4.8 4.8,7.4 2.6,9.6 0,9.6 H -33.2 C -35.9,9.6 -38,7.4 -38,4.8 -38,2.2 -35.8,0 -33.2,0 Z"
             style="fill:#ff7500;fill-opacity:1;fill-rule:nonzero;stroke:none"
             id="path40" /></g><g
           id="g42"
           transform="translate(117.7,56.3)"><path
             d="m 0,0 h -1.4 c -2.7,-0.1 -4.7,-2.4 -4.6,-5.1 0.1,-2.5 2.1,-4.5 4.6,-4.6 H 0 c 2.7,0.1 4.7,2.4 4.6,5.1 C 4.5,-2.1 2.5,-0.1 0,0"
             style="fill:#ff7500;fill-opacity:1;fill-rule:nonzero;stroke:none"
             id="path44" /></g><g
           id="g46"
           transform="translate(111.9,43.5)"><path
             d="m 0,0 h -2.9 c -2.7,0 -4.8,-2.2 -4.8,-4.8 0,-2.6 2.2,-4.8 4.8,-4.8 H 0 c 2.7,0 4.8,2.2 4.8,4.8 C 4.8,-2.2 2.7,0 0,0"
             style="fill:#ff7500;fill-opacity:1;fill-rule:nonzero;stroke:none"
             id="path48" /></g><g
           id="g50"
           transform="translate(100.2,56.3)"><path
             d="m 0,0 h -32.8 c -2.7,-0.1 -4.7,-2.4 -4.6,-5.1 0.1,-2.5 2.1,-4.5 4.6,-4.6 h 32.7 c 2.7,0.1 4.7,2.4 4.6,5.1 0,2.5 -2,4.5 -4.5,4.6"
             style="fill:#ff7500;fill-opacity:1;fill-rule:nonzero;stroke:none"
             id="path52" /></g><g
           id="g54"
           transform="translate(91.4,43.5)"><path
             d="m 0,0 h -21.7 c -2.7,0 -4.8,-2.2 -4.8,-4.8 0,-2.6 2.2,-4.8 4.8,-4.8 H 0.1 c 2.7,0 4.8,2.2 4.8,4.8 C 4.9,-2.2 2.7,0 0,0"
             style="fill:#ff7500;fill-opacity:1;fill-rule:nonzero;stroke:none"
             id="path56" /></g><g
           id="g58"
           transform="translate(84.1,30.6)"><path
             d="m 0,0 h -9.9 c -2.7,0 -4.8,-2.2 -4.8,-4.8 0,-2.6 2.2,-4.8 4.8,-4.8 H 0 c 2.7,0 4.8,2.2 4.8,4.8 C 4.8,-2.2 2.7,0 0,0"
             style="fill:#ff7500;fill-opacity:1;fill-rule:nonzero;stroke:none"
             id="path60" /></g><g
           id="g62"
           transform="translate(306.4,48.2)"><path
             d="m 0,0 c -12.5,0 -22.7,10.1 -22.7,22.7 0,12.5 10.1,22.7 22.7,22.7 12.5,0 22.7,-10.1 22.7,-22.7 C 22.7,10.1 12.5,0 0,0 m 0,58.1 c -19.6,0.3 -35.7,-15.3 -36,-34.8 -0.3,-19.5 15.3,-35.7 34.8,-36 H 0 c 8.4,0.1 16.5,3.3 22.7,9 v -2.6 c 0,-3.5 2.9,-6.4 6.4,-6.4 3.5,0 6.4,2.9 6.4,6.4 v 29 C 35.4,42.2 19.6,58 0,58.1"
             style="fill:#000000;fill-opacity:1;fill-rule:nonzero;stroke:none"
             id="path64" /></g><g
           id="g66"
           transform="translate(426.1,48.2)"><path
             d="m 0,0 c -12.5,0 -22.7,10.2 -22.7,22.7 0,12.5 10.2,22.7 22.7,22.7 12.5,0 22.7,-10.2 22.7,-22.7 C 22.7,10.1 12.6,0 0,0 M 0,58.1 C -19.6,57.8 -35.2,41.6 -34.8,22.1 -34.5,3 -19.1,-12.4 0,-12.7 c 8.4,0.1 16.5,3.3 22.7,9 v -2.6 c -0.1,-3.5 2.6,-6.5 6.1,-6.6 3.5,-0.1 6.5,2.6 6.6,6.1 v 0.5 29 C 35.5,42.2 19.6,58 0,58.1 c 0.1,0 0.1,0 0,0"
             style="fill:#000000;fill-opacity:1;fill-rule:nonzero;stroke:none"
             id="path68" /></g><g
           id="g70"
           transform="translate(258.9,79.7)"><path
             d="m 0,0 c 0,14.7 -11.9,26.6 -26.6,26.6 -7.8,0 -15.2,-3.4 -20.2,-9.3 -9.5,11.2 -26.3,12.5 -37.5,2.9 -5.9,-5 -9.3,-12.4 -9.3,-20.2 v -37.9 c 0,-3.5 2.9,-6.4 6.4,-6.4 3.5,0 6.4,2.9 6.4,6.4 V 0 c 0,7.6 6.2,13.8 13.8,13.8 7.6,0 13.8,-6.2 13.8,-13.8 v -37.9 c -0.1,-3.5 2.6,-6.5 6.1,-6.6 3.5,-0.1 6.5,2.6 6.6,6.1 V -37.9 0 c 0,7.6 6.2,13.8 13.8,13.8 7.6,0 13.8,-6.2 13.8,-13.8 v -37.9 c 0,-3.5 2.9,-6.4 6.4,-6.4 3.5,0 6.4,2.9 6.4,6.4 l 0,37.9 z"
             style="fill:#000000;fill-opacity:1;fill-rule:nonzero;stroke:none"
             id="path72" /></g><g
           id="g74"
           transform="translate(382.6,106.3)"><path
             d="m 0,0 c -14.7,0 -26.6,-11.9 -26.6,-26.6 v -37.9 c 0,-3.5 2.9,-6.4 6.4,-6.4 3.5,0 6.4,2.9 6.4,6.4 v 37.9 c 0,7.6 6.2,13.8 13.8,13.8 3.5,0 6.4,2.9 6.4,6.4 C 6.4,-2.9 3.5,0 0,0"
             style="fill:#000000;fill-opacity:1;fill-rule:nonzero;stroke:none"
             id="path76" /></g></g></g></g></svg>
